#!OML:ASF X:\für Bonn\!DataBase\2005_08_12_Daniel\c3d\Daniel.ASF
:FULLY-SPECIFIED
:DEGREES
159
root 2.29369 17.6074 18.4338 -4.42492 -350.211 361.635
lowerback 5.45242 2.45827 2.06905
upperback -0.709024 3.21664 -6.47751
thorax -3.31026 1.51923 -8.23735
lowerneck 1.29737 -3.22996 -0.544917
upperneck 9.33011 -4.532 2.91036
head 2.83141 -2.1805 0.931598
rclavicle -5.46658e-015 -3.49861e-014
rhumerus 56.0909 5.80846 -51.1674
rradius 26.6998
rwrist 21.6646
rhand -1.59382 12.7074
rfingers 7.12502
rthumb 24.0629 -15.804
lclavicle -5.46658e-015 -3.49861e-014
lhumerus -54.2404 53.8162 37.3598
lradius 13.3096
lwrist -61.6032
lhand -11.864 -4.38383
lfingers 7.12502
lthumb 14.1881 25.1116
rfemur 5.69414 17.7069 18.813
rtibia 18.9386
rfoot -26.3576 -23.7774
rtoes -11.65
lfemur -3.45253 -18.2091 -22.0628
ltibia 29.0711
lfoot -20.241 3.54748
ltoes -12.7288
160
root 2.29619 17.6073 18.4311 -4.41017 -350.278 361.636
lowerback 5.48053 2.42979 1.99853
upperback -0.737952 3.17253 -6.44375
thorax -3.36881 1.49587 -8.15981
lowerneck 1.28692 -3.2154 -0.552824
upperneck 9.31328 -4.51275 2.91631
head 2.82762 -2.17123 0.935203
rclavicle 7.05686e-015 1.90833e-014
rhumerus 55.466 5.64168 -51.5318
rradius 27.7433
rwrist 21.5775
rhand -2.61903 12.9914
rfingers 7.12502
rthumb 23.0796 -15.6464
lclavicle 7.05686e-015 1.90833e-014
lhumerus -54.7901 53.968 36.6595
lradius 13.253
lwrist -61.7855
lhand -11.9486 -4.37795
lfingers 7.12502
lthumb 14.1065 25.1232
rfemur 5.67029 17.852 18.827
rtibia 18.9504
rfoot -26.4233 -23.8541
rtoes -11.6036
lfemur -3.47627 -18.1464 -22.0548
ltibia 29.07
lfoot -20.2492 3.50738
ltoes -12.6475
161
root 2.29764 17.6074 18.4311 -4.37608 -350.327 361.639
lowerback 5.47283 2.39351 1.87812
upperback -0.776717 3.11496 -6.39372
thorax -3.42279 1.4668 -8.03279
lowerneck 1.27236 -3.20049 -0.530341
upperneck 9.33534 -4.48968 2.86215
head 2.83489 -2.16031 0.914089
rclavicle -1.2424e-014 5.88403e-014
rhumerus 54.7342 5.47615 -51.9249
rradius 28.9616
rwrist 21.2935
rhand -3.55933 13.3032
rfingers 7.12502
rthumb 22.1771 -15.4446
lclavicle -1.2424e-014 5.88403e-014
lhumerus -55.4466 54.1633 35.8388
lradius 13.1966
lwrist -62.0075
lhand -12.0018 -4.46712
lfingers 7.12502
lthumb 14.0553 25.0376
rfemur 5.65038 18.0829 18.8712
rtibia 18.9531
rfoot -26.5181 -24.0408
rtoes -11.5904
lfemur -3.52344 -18.0581 -22.0322
ltibia 29.075
lfoot -20.2362 3.43796
ltoes -12.5239
162
root 2.29903 17.6072 18.4305 -4.34112 -350.356 361.654
lowerback 5.46387 2.3533 1.73263
upperback -0.802876 3.05109 -6.33913
thorax -3.46499 1.43587 -7.88524
lowerneck 1.21019 -3.18875 -0.501539
upperneck 9.37729 -4.4706 2.79286
head 2.85708 -2.15099 0.88612
rclavicle 3.37934e-015 -9.54166e-015
rhumerus 53.8782 5.2459 -52.3999
rradius 30.3687
rwrist 20.8207
rhand -4.40895 13.6111
rfingers 7.12502
rthumb 21.3612 -15.2315
lclavicle 3.37934e-015 -9.54166e-015
lhumerus -56.0405 54.3595 35.1038
lradius 13.1417
lwrist -62.2135
lhand -12.0783 -4.5513
lfingers 7.12502
lthumb 13.9816 24.9585
rfemur 5.63367 18.3121 18.9062
rtibia 18.9604
rfoot -26.6383 -24.2371
rtoes -11.5599
lfemur -3.56636 -18.0016 -22.0277
ltibia 29.0787
lfoot -20.2357 3.382
ltoes -12.5174
163
root 2.30065 17.6072 18.4317 -4.30085 -350.383 361.643
lowerback 5.4296 2.31734 1.62072
upperback -0.829091 2.99555 -6.29189
thorax -3.48924 1.4091 -7.76426
lowerneck 1.16564 -3.17651 -0.447378
upperneck 9.39879 -4.4521 2.7431
head 2.86907 -2.14092 0.860443
rclavicle 1.03368e-014 1.59028e-014
rhumerus 52.8811 4.91241 -53.0508
rradius 31.9428
rwrist 20.2844
rhand -5.16191 13.9867
rfingers 7.12502
rthumb 20.6378 -14.9361
lclavicle 1.03368e-014 1.59028e-014
lhumerus -56.5984 54.5392 34.3856
lradius 13.1122
lwrist -62.3903
lhand -12.1034 -4.71944
lfingers 7.12502
lthumb 13.9574 24.7921
rfemur 5.60944 18.5119 18.9553
rtibia 18.9677
rfoot -26.7646 -24.3793
rtoes -11.4695
lfemur -3.62281 -17.9234 -21.9878
ltibia 29.0843
lfoot -20.2226 3.29841
ltoes -12.3884
164
root 2.30212 17.6076 18.4325 -4.25611 -350.403 361.659
lowerback 5.39397 2.26548 1.46378
upperback -0.852875 2.91594 -6.23808
thorax -3.51579 1.37123 -7.60832
lowerneck 1.12989 -3.15985 -0.383784
upperneck 9.40107 -4.42325 2.64184
head 2.87092 -2.12724 0.817026
rclavicle 1.799e-014 7.4743e-014
rhumerus 51.7879 4.54305 -53.8937
rradius 33.7204
rwrist 19.6637
rhand -5.72786 14.3458
rfingers 7.12502
rthumb 20.0939 -14.6351
lclavicle 1.799e-014 7.4743e-014
lhumerus -57.201 54.7485 33.6287
lradius 13.0943
lwrist -62.5804
lhand -12.0893 -4.91398
lfingers 7.12502
lthumb 13.9709 24.5966
rfemur 5.58528 18.7417 18.987
rtibia 18.9752
rfoot -26.8808 -24.5856
rtoes -11.4397
lfemur -3.68281 -17.8421 -21.9752
ltibia 29.0917
lfoot -20.219 3.20759
ltoes -12.3191
165
root 2.30363 17.6071 18.4343 -4.22222 -350.411 361.662
lowerback 5.35259 2.21457 1.32832
upperback -0.865293 2.83988 -6.18337
thorax -3.52516 1.33555 -7.46341
lowerneck 1.06674 -3.14249 -0.336501
upperneck 9.43075 -4.39493 2.55154
head 2.88796 -2.11354 0.779399
rclavicle 4.57205e-015 -3.49861e-014
rhumerus 50.5782 4.12677 -54.8
rradius 35.7137
rwrist 18.812
rhand -6.15552 14.6421
rfingers 7.12502
rthumb 19.6829 -14.3815
lclavicle 4.57205e-015 -3.49861e-014
lhumerus -57.595 54.8449 33.143
lradius 13.1075
lwrist -62.6224
lhand -12.0689 -5.12429
lfingers 7.12502
lthumb 13.9906 24.3849
rfemur 5.58145 18.9674 19.0429
rtibia 18.9907
rfoot -27.0283 -24.7816
rtoes -11.4007
lfemur -3.72548 -17.7719 -21.954
ltibia 29.0949
lfoot -20.2186 3.11535
ltoes -12.2498
166
root 2.30511 17.6061 18.4363 -4.21365 -350.417 361.664
lowerback 5.34397 2.1636 1.19828
upperback -0.878406 2.76368 -6.12304
thorax -3.55326 1.29926 -7.3177
lowerneck 1.03831 -3.13109 -0.31269
upperneck 9.43972 -4.37278 2.45266
head 2.89217 -2.10449 0.743529
rclavicle -1.49089e-015 5.24792e-014
rhumerus 49.2127 3.69115 -55.7412
rradius 37.9347
rwrist 17.8791
rhand -6.46661 14.8595
rfingers 7.12502
rthumb 19.3838 -14.1944
lclavicle -1.49089e-015 5.24792e-014
lhumerus -58.1742 55.0411 32.4524
lradius 13.1347
lwrist -62.8656
lhand -12.0357 -5.29658
lfingers 7.12502
lthumb 14.0226 24.2104
rfemur 5.60084 19.1861 19.1063
rtibia 19.0084
rfoot -27.1532 -24.977
rtoes -11.3979
lfemur -3.74342 -17.715 -21.9373
ltibia 29.0985
lfoot -20.2079 3.017
ltoes -12.0629
167
root 2.30626 17.6064 18.4385 -4.18517 -350.424 361.679
lowerback 5.31056 2.11159 1.057
upperback -0.887713 2.68605 -6.06468
thorax -3.56348 1.2631 -7.16606
lowerneck 1.00045 -3.12011 -0.291161
upperneck 9.43336 -4.34877 2.32771
head 2.8922 -2.09552 0.699658
rclavicle 2.24627e-014 3.33958e-014
rhumerus 47.7884 3.26936 -56.6824
rradius 40.2849
rwrist 16.8299
rhand -6.77777 14.938
rfingers 7.12502
rthumb 19.0845 -14.1457
lclavicle 2.24627e-014 3.33958e-014
lhumerus -58.6089 55.1655 31.9474
lradius 13.1902
lwrist -63.0041
lhand -11.9522 -5.53911
lfingers 7.12502
lthumb 14.1031 23.9623
rfemur 5.60368 19.4139 19.1462
rtibia 19.0242
rfoot -27.3072 -25.1541
rtoes -11.3091
lfemur -3.77947 -17.6348 -21.9302
ltibia 29.1057
lfoot -20.2102 2.91568
ltoes -11.9896
168
root 2.30775 17.6055 18.4414 -4.16901 -350.418 361.68
lowerback 5.26417 2.04837 0.94957
upperback -0.87926 2.597 -6.00303
thorax -3.54742 1.22158 -7.02829
lowerneck 0.936091 -3.09858 -0.32745
upperneck 9.44494 -4.31339 2.24246
head 2.9058 -2.08131 0.678212
rclavicle -3.65764e-014 9.54166e-015
rhumerus 46.2812 2.86851 -57.5752
rradius 42.817
rwrist 15.701
rhand -7.11218 14.8918
rfingers 7.12502
rthumb 18.7629 -14.2233
lclavicle -3.65764e-014 9.54166e-015
lhumerus -59.0395 55.3213 31.4672
lradius 13.265
lwrist -63.2026
lhand -11.8667 -5.74661
lfingers 7.12502
lthumb 14.1855 23.749
rfemur 5.61956 19.6241 19.2045
rtibia 19.0436
rfoot -27.4604 -25.3284
rtoes -11.1958
lfemur -3.80833 -17.5757 -21.9134
ltibia 29.1133
lfoot -20.1966 2.83409
ltoes -11.9274
169
root 2.30898 17.6048 18.4436 -4.14991 -350.393 361.694
lowerback 5.2319 1.98599 0.846256
upperback -0.876725 2.50843 -5.95892
thorax -3.54401 1.17968 -6.913
lowerneck 0.910247 -3.08022 -0.372295
upperneck 9.42806 -4.28392 2.19156
head 2.90401 -2.06984 0.669889
rclavicle 2.50469e-014 2.8625e-014
rhumerus 44.6682 2.46613 -58.5207
rradius 45.4286
rwrist 14.645
rhand -7.53226 14.7707
rfingers 7.12502
rthumb 18.3589 -14.383
lclavicle 2.50469e-014 2.8625e-014
lhumerus -59.3807 55.4283 31.0831
lradius 13.3623
lwrist -63.3352
lhand -11.7182 -5.94594
lfingers 7.12502
lthumb 14.3286 23.5396
rfemur 5.63871 19.8008 19.2445
rtibia 19.063
rfoot -27.6144 -25.4678
rtoes -11.1781
lfemur -3.84511 -17.5156 -21.9072
ltibia 29.1239
lfoot -20.1907 2.72004
ltoes -11.8531
